<svg xmlns="http://www.w3.org/2000/svg" viewBox="0 -106 548 126" width="548" height="126" role="img" aria-label="fono">

  <rect x="0" y="-99.6" width="113" height="113" rx="24.9" fill="#d9342f"></rect>
  <circle cx="56.5" cy="-40.8" r="26.6" fill="none" stroke="#f5f0e6" stroke-width="9.6"></circle>
  <rect x="51.4" y="-82.1" width="10.2" height="78.0" rx="5.1" fill="#f5f0e6"></rect>
  <path d="M202.80 13.20L169.20 13.20L169.20-99.60L202.80-99.60L202.80-85.80L184.20-85.80L184.20-0.60L202.80-0.60L202.80 13.20Z" fill="#d9342f"></path>
  <path d="M259.60 0L244.60 0L244.60-43.44L226.48-43.44L226.48-57L244.60-57L244.60-68.64Q244.60-77.28 250.36-82.44Q256.12-87.60 265.60-87.60L265.60-87.60L284.92-87.60L284.92-74.40L265.96-74.40Q263.08-74.40 261.34-72.78Q259.60-71.16 259.60-68.40L259.60-68.40L259.60-57L284.92-57L284.92-43.44L259.60-43.44L259.60 0Z M323.80 1.08L323.80 1.08Q311.08 1.08 303.64-6.06Q296.20-13.20 296.20-25.32L296.20-25.32L296.20-40.68Q296.20-52.92 303.64-60Q311.08-67.08 323.80-67.08L323.80-67.08Q336.52-67.08 343.96-60Q351.40-52.92 351.40-40.68L351.40-40.68L351.40-25.32Q351.40-13.20 343.96-6.06Q336.52 1.08 323.80 1.08ZM323.80-12L323.80-12Q329.80-12 333.10-15.30Q336.40-18.60 336.40-24.84L336.40-24.84L336.40-41.16Q336.40-47.40 333.10-50.70Q329.80-54 323.80-54L323.80-54Q317.80-54 314.50-50.70Q311.20-47.40 311.20-41.16L311.20-41.16L311.20-24.84Q311.20-18.60 314.50-15.30Q317.80-12 323.80-12Z M379.24 0L364.24 0L364.24-66L378.88-66L378.88-53.64Q380.08-59.88 384.76-63.54Q389.44-67.20 396.64-67.20L396.64-67.20Q406.36-67.20 412.18-60.72Q418-54.24 418-43.32L418-43.32L418 0L403 0L403-41.52Q403-47.64 399.82-50.94Q396.64-54.24 391.24-54.24L391.24-54.24Q385.60-54.24 382.42-50.88Q379.24-47.52 379.24-41.28L379.24-41.28L379.24 0Z M458.20 1.08L458.20 1.08Q445.48 1.08 438.04-6.06Q430.60-13.20 430.60-25.32L430.60-25.32L430.60-40.68Q430.60-52.92 438.04-60Q445.48-67.08 458.20-67.08L458.20-67.08Q470.92-67.08 478.36-60Q485.80-52.92 485.80-40.68L485.80-40.68L485.80-25.32Q485.80-13.20 478.36-6.06Q470.92 1.08 458.20 1.08ZM458.20-12L458.20-12Q464.20-12 467.50-15.30Q470.80-18.60 470.80-24.84L470.80-24.84L470.80-41.16Q470.80-47.40 467.50-50.70Q464.20-54 458.20-54L458.20-54Q452.20-54 448.90-50.70Q445.60-47.40 445.60-41.16L445.60-41.16L445.60-24.84Q445.60-18.60 448.90-15.30Q452.20-12 458.20-12Z" fill="#f5f0e6"></path>
  <path d="M545.60 13.20L512 13.20L512-0.60L530.60-0.60L530.60-85.80L512-85.80L512-99.60L545.60-99.60L545.60 13.20Z" fill="#d9342f"></path>
</svg>